<svg width="31" height="18" viewBox="0 0 31 18" fill="none" xmlns="http://www.w3.org/2000/svg">
<path d="M8.48314 6.53721C8.48314 6.90769 8.52329 7.20802 8.59332 7.42828C8.68224 7.67608 8.78929 7.91698 8.91361 8.14904C8.96369 8.22912 8.98365 8.30919 8.98365 8.37934C8.98365 8.47937 8.92365 8.57952 8.7935 8.67967L8.16285 9.10011C8.07274 9.16022 7.98263 9.19022 7.90244 9.19022C7.80241 9.19022 7.70226 9.14014 7.60211 9.05003C7.46724 8.90507 7.34658 8.74752 7.24178 8.57952C7.14163 8.40946 7.04148 8.21908 6.93142 7.9889C6.15054 8.90985 5.16936 9.37044 3.98812 9.37044C3.14724 9.37044 2.47643 9.1301 1.98584 8.64967C1.49537 8.169 1.24512 7.52831 1.24512 6.72747C1.24512 5.87656 1.54545 5.18579 2.15614 4.6652C2.76672 4.14462 3.57772 3.88432 4.60885 3.88432C4.94922 3.88432 5.29962 3.91432 5.66998 3.96439C6.04047 4.01447 6.42087 4.09454 6.82135 4.18465V3.45385C6.82135 2.69292 6.66108 2.16242 6.35072 1.85205C6.03043 1.54168 5.48976 1.39146 4.71892 1.39146C4.36852 1.39146 4.00819 1.43161 3.63771 1.52172C3.26735 1.61172 2.90691 1.7219 2.5565 1.86209C2.39636 1.93212 2.27625 1.97216 2.2061 1.99224C2.13607 2.01231 2.08599 2.02223 2.04596 2.02223C1.90577 2.02223 1.83574 1.92208 1.83574 1.71187V1.22128C1.83574 1.06113 1.85581 0.941024 1.90577 0.87099C1.95585 0.800839 2.04596 0.730805 2.18614 0.660772C2.53655 0.48055 2.95698 0.330327 3.44745 0.210219C3.93816 0.0800721 4.45875 0.0200771 5.00933 0.0200771C6.20073 0.0200771 7.07172 0.290291 7.63234 0.830954C8.18293 1.3715 8.4633 2.19242 8.4633 3.2937V6.53721H8.48337H8.48314ZM4.41859 8.05893C4.74904 8.05893 5.0894 7.99894 5.44973 7.87871C5.81017 7.7586 6.13058 7.53835 6.40079 7.23802C6.56105 7.04788 6.68116 6.83766 6.74116 6.59732C6.80127 6.35711 6.84131 6.0667 6.84131 5.72633V5.3059C6.5377 5.232 6.2302 5.17518 5.92024 5.13571C5.60813 5.09607 5.29384 5.07599 4.97922 5.0756C4.30841 5.0756 3.81793 5.20575 3.48761 5.47608C3.15716 5.74641 2.99702 6.12681 2.99702 6.62732C2.99702 7.09783 3.11713 7.44824 3.36738 7.68857C3.60772 7.93883 3.95812 8.05893 4.41859 8.05893ZM12.4576 9.14014C12.2773 9.14014 12.1572 9.11015 12.0772 9.03999C11.9971 8.98 11.9269 8.83981 11.8669 8.64967L9.51439 0.911026C9.45416 0.710728 9.42416 0.580581 9.42416 0.510548C9.42416 0.350404 9.50423 0.260175 9.66449 0.260175H10.6456C10.8357 0.260175 10.966 0.290291 11.036 0.360324C11.1161 0.420437 11.1762 0.560623 11.2362 0.750764L12.918 7.3782L14.4798 0.750764C14.5299 0.550584 14.59 0.420437 14.6699 0.360324C14.7501 0.300329 14.8903 0.260293 15.0705 0.260293H15.8714C16.0615 0.260293 16.1918 0.290291 16.2717 0.360324C16.3519 0.420437 16.422 0.560623 16.462 0.750764L18.0438 7.45828L19.7757 0.750764C19.8357 0.550584 19.9058 0.420437 19.9758 0.360324C20.0559 0.300329 20.1861 0.260293 20.3663 0.260293H21.2973C21.4575 0.260293 21.5476 0.340365 21.5476 0.510548C21.5476 0.560623 21.5376 0.610697 21.5276 0.670692C21.5175 0.730805 21.4976 0.810877 21.4575 0.921065L19.0447 8.65959C18.9847 8.85989 18.9147 8.99004 18.8345 9.05003C18.7544 9.11014 18.6243 9.15018 18.4542 9.15018H17.5933C17.403 9.15018 17.2729 9.12018 17.1927 9.05003C17.1126 8.98 17.0426 8.84985 17.0025 8.64967L15.4507 2.19242L13.909 8.63951C13.8591 8.83981 13.799 8.96996 13.7189 9.03999C13.6388 9.11015 13.4986 9.14014 13.3185 9.14014H12.4575H12.4576ZM25.3219 9.41047C24.8013 9.41047 24.2807 9.35036 23.7802 9.23025C23.2796 9.11015 22.8893 8.97988 22.629 8.82989C22.4687 8.73966 22.3585 8.63963 22.3186 8.54952C22.2796 8.46116 22.2592 8.36574 22.2585 8.26915V7.7586C22.2585 7.54839 22.3386 7.44824 22.4888 7.44824C22.5501 7.44846 22.611 7.45863 22.669 7.47835C22.729 7.49843 22.8191 7.53835 22.9193 7.57838C23.2728 7.73391 23.642 7.85137 24.0204 7.92879C24.4126 8.00837 24.8117 8.04861 25.2118 8.04889C25.8425 8.04889 26.3331 7.93883 26.6734 7.71857C27.0138 7.49831 27.194 7.17802 27.194 6.76751C27.194 6.48725 27.1039 6.25696 26.9237 6.0667C26.7435 5.87656 26.4031 5.70637 25.9126 5.54611L24.4609 5.09568C23.7301 4.86538 23.1896 4.52502 22.8591 4.07446C22.5288 3.63395 22.3586 3.14348 22.3586 2.62289C22.3586 2.20245 22.4487 1.83197 22.629 1.51157C22.8091 1.19128 23.0494 0.911026 23.3497 0.690769C23.6501 0.460473 23.9904 0.290291 24.3909 0.170183C24.7913 0.0500746 25.2117 0 25.6522 0C25.8725 0 26.1028 0.0100385 26.323 0.040036C26.5533 0.0700335 26.7635 0.11007 26.9738 0.150106C27.1739 0.20018 27.3642 0.250255 27.5444 0.310368C27.7246 0.370363 27.8647 0.430476 27.9649 0.490471C28.105 0.570661 28.2051 0.650733 28.2652 0.740844C28.3253 0.820916 28.3553 0.930985 28.3553 1.07117V1.54168C28.3553 1.7519 28.2752 1.86209 28.125 1.86209C28.0449 1.86209 27.9148 1.82193 27.7447 1.74186C27.1739 1.48157 26.5332 1.35142 25.8225 1.35142C25.2519 1.35142 24.8013 1.44153 24.4909 1.63179C24.1807 1.82193 24.0204 2.11234 24.0204 2.52274C24.0204 2.80311 24.1206 3.04333 24.3208 3.23359C24.5211 3.42373 24.8914 3.61399 25.422 3.78417L26.8436 4.23473C27.5644 4.46502 28.085 4.78531 28.3953 5.19571C28.7057 5.60623 28.8559 6.07674 28.8559 6.59732C28.8559 7.0278 28.7657 7.41824 28.5955 7.7586C28.4154 8.09897 28.1751 8.3993 27.8647 8.63963C27.5543 8.88989 27.184 9.07011 26.7535 9.20026C26.303 9.34044 25.8324 9.41047 25.3219 9.41047Z" fill="#252F3E"/>
<path d="M27.2134 14.2758C23.9199 16.7086 19.1344 18 15.0199 18C9.25345 18 4.05774 15.8676 0.133379 12.3236C-0.176989 12.0434 0.103264 11.663 0.473626 11.8831C4.71839 14.346 9.95425 15.8376 15.3703 15.8376C19.0244 15.8376 23.0388 15.0768 26.733 13.515C27.2836 13.2647 27.7541 13.8755 27.2134 14.2758ZM28.5851 12.7141C28.1646 12.1735 25.8019 12.4538 24.7307 12.5839C24.4103 12.6241 24.3603 12.3437 24.6507 12.1335C26.5327 10.812 29.6262 11.1925 29.9866 11.6329C30.347 12.0834 29.8864 15.1768 28.1245 16.6585C27.8543 16.8888 27.594 16.7687 27.7141 16.4684C28.1144 15.4772 29.0055 13.2447 28.5851 12.7141Z" fill="#FF9900"/>
</svg>
