<svg width="20" height="18" viewBox="0 0 20 18" fill="none" xmlns="http://www.w3.org/2000/svg">
<path d="M6.36844 0.000277885H12.0213L6.15322 17.3868C6.09296 17.5656 5.97814 17.7209 5.82494 17.8309C5.67174 17.9409 5.48788 18 5.29928 18H0.900086C0.757212 18 0.616396 17.9659 0.48927 17.9007C0.362143 17.8355 0.252354 17.741 0.16897 17.625C0.0856108 17.509 0.0310911 17.3747 0.00992527 17.2334C-0.0112405 17.0921 0.00155651 16.9478 0.0472568 16.8125L5.5145 0.613292C5.5748 0.434584 5.68962 0.279286 5.84281 0.169266C5.996 0.0592464 6.17984 4.57622e-05 6.36844 0V0.000277885Z" fill="url(#paint0_linear_56_1017)"/>
<path d="M14.5825 11.6621H5.6188C5.53543 11.6619 5.45395 11.6868 5.38497 11.7337C5.31599 11.7805 5.26272 11.847 5.2321 11.9245C5.20149 12.0021 5.19495 12.087 5.21335 12.1683C5.23174 12.2496 5.27421 12.3235 5.33522 12.3803L11.0952 17.7567C11.263 17.9131 11.4839 18 11.7133 17.9999H16.789L14.5825 11.6621Z" fill="#0078D4"/>
<path d="M6.36862 6.3105e-06C6.17796 -0.000709868 5.99206 0.0595504 5.83808 0.171986C5.6841 0.284422 5.5701 0.443144 5.51273 0.62497L0.0542393 16.7975C0.00550938 16.9333 -0.00978464 17.0789 0.00965083 17.2219C0.0290863 17.365 0.0826796 17.5012 0.165898 17.6191C0.249116 17.7371 0.359511 17.8332 0.487747 17.8995C0.615982 17.9657 0.758286 18.0001 0.902622 17.9997H5.41547C5.58355 17.9697 5.74064 17.8956 5.87071 17.785C6.00077 17.6744 6.09914 17.5313 6.15576 17.3702L7.24423 14.1621L11.1325 17.7887C11.2954 17.9235 11.4998 17.998 11.7112 17.9997H16.7682L14.5502 11.6617L8.08484 11.6633L12.0419 6.3105e-06H6.36862Z" fill="url(#paint1_linear_56_1017)"/>
<path d="M13.5893 0.612181C13.5291 0.433723 13.4144 0.278654 13.2614 0.168826C13.1084 0.0589985 12.9248 -5.05943e-05 12.7365 3.25272e-08H6.43652C6.62483 2.02356e-05 6.80838 0.0590991 6.96135 0.168919C7.11431 0.278739 7.22898 0.433768 7.28921 0.612181L12.7566 16.812C12.8024 16.9474 12.8152 17.0918 12.7941 17.2331C12.773 17.3745 12.7185 17.5088 12.6352 17.6249C12.5518 17.741 12.442 17.8356 12.3149 17.9008C12.1877 17.966 12.0468 18 11.9039 18H18.2041C18.347 17.9999 18.4878 17.9658 18.6149 17.9005C18.7419 17.8353 18.8517 17.7407 18.935 17.6246C19.0183 17.5085 19.0727 17.3743 19.0939 17.233C19.1151 17.0917 19.1023 16.9474 19.0567 16.812L13.5893 0.612181Z" fill="url(#paint2_linear_56_1017)"/>
<defs>
<linearGradient id="paint0_linear_56_1017" x1="8.42882" y1="1.33413" x2="2.55823" y2="18.6771" gradientUnits="userSpaceOnUse">
<stop stop-color="#114A8B"/>
<stop offset="1" stop-color="#0669BC"/>
</linearGradient>
<linearGradient id="paint1_linear_56_1017" x1="10.2628" y1="9.41614" x2="8.90488" y2="9.87534" gradientUnits="userSpaceOnUse">
<stop stop-opacity="0.3"/>
<stop offset="0.071" stop-opacity="0.2"/>
<stop offset="0.321" stop-opacity="0.1"/>
<stop offset="0.623" stop-opacity="0.05"/>
<stop offset="1" stop-opacity="0"/>
</linearGradient>
<linearGradient id="paint2_linear_56_1017" x1="9.51646" y1="0.827958" x2="15.9606" y2="17.9962" gradientUnits="userSpaceOnUse">
<stop stop-color="#3CCBF4"/>
<stop offset="1" stop-color="#2892DF"/>
</linearGradient>
</defs>
</svg>
