<svg width="34" height="11" viewBox="0 0 34 11" fill="none" xmlns="http://www.w3.org/2000/svg">
<path d="M24.3865 8.76888C23.6317 8.7205 23.1929 8.29114 23.0768 7.48798C23.0458 7.27426 23.0458 7.26873 23.0425 5.88166L23.0395 4.5391H23.7074L23.7099 5.8377C23.7124 7.00802 23.7138 7.14543 23.7251 7.22754C23.7705 7.5618 23.8609 7.78657 24.0152 7.94775C24.1385 8.07687 24.2828 8.15235 24.4827 8.19243C24.5767 8.21151 24.8451 8.21151 24.9311 8.19243C25.1241 8.15314 25.301 8.05727 25.4393 7.91707C25.6027 7.75395 25.7235 7.52254 25.7821 7.26099L25.8015 7.1728L25.8037 5.86341L25.8059 4.55348H26.4879V8.67129H25.8131V8.3445C25.8131 8.12276 25.8106 8.01881 25.8053 8.02047C25.79 8.03833 25.7771 8.05813 25.7669 8.07936C25.6439 8.29794 25.4632 8.47858 25.2446 8.60162C24.9903 8.74124 24.7351 8.791 24.3865 8.76888ZM32.0448 8.76556C31.7699 8.7427 31.5042 8.65598 31.2687 8.51231C30.7855 8.21372 30.4996 7.7216 30.4161 7.04479C30.3871 6.81034 30.3835 6.49571 30.4078 6.29665C30.4617 5.85153 30.6367 5.4147 30.8861 5.10311C30.9497 5.02293 31.0948 4.87834 31.1747 4.81447C31.3903 4.64243 31.6425 4.52221 31.9118 4.46307C32.0683 4.42907 32.3437 4.41303 32.5098 4.42824C32.9273 4.46694 33.3094 4.66324 33.5693 4.97206C33.8336 5.28586 33.9785 5.72435 33.9973 6.2643C34.0002 6.37422 34.0007 6.4842 33.9986 6.59414L33.9951 6.76998L32.5336 6.77163L31.0722 6.77357V6.83882C31.0722 7.03705 31.1203 7.26293 31.2038 7.45535C31.2757 7.62096 31.3998 7.80178 31.501 7.88942C31.7089 8.06899 31.9682 8.1785 32.2419 8.20239C32.3453 8.21206 32.6085 8.20183 32.726 8.18386C33.0619 8.13216 33.3813 8.00056 33.6387 7.80786C33.6691 7.78491 33.6981 7.76362 33.7034 7.76058C33.7108 7.75588 33.7128 7.81505 33.7125 8.0647V8.37435L33.6431 8.41721C33.345 8.59955 33.0109 8.71518 32.6638 8.75617C32.5582 8.76916 32.1712 8.77496 32.0448 8.76556ZM33.3166 6.1515C33.3166 5.81946 33.1764 5.45036 32.9782 5.26043C32.8367 5.12485 32.6561 5.03739 32.462 5.01049C32.3658 4.99556 32.1631 5.00137 32.0617 5.02155C31.8544 5.06103 31.6639 5.16222 31.5151 5.31185C31.3513 5.47401 31.2274 5.67201 31.1532 5.89023C31.1255 5.97041 31.0935 6.10174 31.0832 6.17473L31.0785 6.20956H33.3166V6.1515ZM13.492 8.66189L14.5949 5.76803L15.6947 2.8833H16.4013L16.4306 2.95795C16.5202 3.1877 18.6322 8.66493 18.6322 8.66769C18.6322 8.66963 18.463 8.67101 18.2562 8.67101H17.8802L17.5761 7.8615L17.2714 7.05198H14.8202L14.8097 7.07963C14.8039 7.09455 14.6737 7.45895 14.5205 7.88887L14.2424 8.67101H13.8655C13.5675 8.67101 13.4895 8.66935 13.492 8.66189ZM17.0477 6.43433C17.0477 6.43295 16.8431 5.87835 16.5927 5.20126C16.1243 3.93556 16.098 3.85925 16.061 3.65605C16.0436 3.56094 16.0347 3.55817 16.0245 3.64499C16.0099 3.73917 15.9887 3.83221 15.9609 3.9234C15.9485 3.96183 15.7375 4.53993 15.492 5.20845C15.3419 5.61531 15.193 6.02265 15.0455 6.43046C15.0455 6.43378 15.4962 6.43655 16.0466 6.43655C16.5974 6.43655 17.0477 6.43544 17.0477 6.43433ZM18.8595 8.56595V8.46034L20.0807 6.78352L21.3018 5.10671L20.1959 5.10311L19.0906 5.09952L19.0887 4.81917L19.0867 4.5391H22.285V4.72821L21.0638 6.41415C20.392 7.34145 19.8423 8.10175 19.8423 8.10341C19.8423 8.10535 20.3853 8.107 21.0489 8.107H22.2557V8.67101H18.8595V8.56595ZM27.8203 8.66631C27.8175 8.66355 27.8156 7.73376 27.8156 6.60022V4.53883H28.483V4.96377C28.483 5.19767 28.4857 5.38871 28.4891 5.38871C28.4927 5.38871 28.509 5.35056 28.5253 5.30383C28.6027 5.0859 28.7305 4.88933 28.8982 4.73015C29.0425 4.59022 29.2268 4.49871 29.4255 4.46833C29.4827 4.4592 29.5311 4.45727 29.6456 4.46031C29.7893 4.46418 29.8642 4.47469 29.9516 4.50316L29.9793 4.51201V5.2043L29.9005 5.16504C29.7639 5.09584 29.6111 5.06525 29.4584 5.07657C29.3508 5.0821 29.2803 5.09592 29.1944 5.12799C29.0199 5.19236 28.8719 5.31311 28.7738 5.4711C28.6242 5.71519 28.529 5.98866 28.4946 6.27287C28.4891 6.32181 28.486 6.72132 28.4846 7.50844L28.4827 8.67156H28.154C27.9732 8.67156 27.823 8.66908 27.8203 8.66631Z" fill="#0089D6"/>
<path d="M3.79989 0.000165807H7.17282L3.67148 10.3743C3.63552 10.4809 3.56701 10.5736 3.4756 10.6392C3.38419 10.7049 3.27449 10.7402 3.16195 10.7402H0.537059C0.45181 10.7401 0.367788 10.7198 0.291935 10.6809C0.216082 10.642 0.150573 10.5856 0.10082 10.5164C0.0510819 10.4472 0.0185513 10.3671 0.00592216 10.2828C-0.00670696 10.1985 0.000928728 10.1123 0.028197 10.0316L3.29037 0.365936C3.32634 0.259305 3.39486 0.166643 3.48626 0.100997C3.57767 0.0353509 3.68736 2.73052e-05 3.79989 0V0.000165807Z" fill="url(#paint0_linear_240_1639)"/>
<path d="M8.70188 6.9585H3.35349C3.30375 6.95838 3.25513 6.97326 3.21397 7.00119C3.17281 7.02912 3.14103 7.0688 3.12276 7.11507C3.10449 7.16133 3.10059 7.21203 3.11157 7.26054C3.12254 7.30905 3.14789 7.35313 3.18429 7.38703L6.62114 10.595C6.72126 10.6883 6.85307 10.7402 6.98995 10.7401H10.0185L8.70188 6.9585Z" fill="#0078D4"/>
<path d="M3.79912 0.000247906C3.68536 -0.00017942 3.57444 0.0357764 3.48257 0.102864C3.39069 0.169952 3.32267 0.264657 3.28844 0.373148L0.0314892 10.0229C0.00241327 10.1039 -0.00671229 10.1908 0.00488437 10.2762C0.016481 10.3615 0.0484588 10.4428 0.0981131 10.5131C0.147767 10.5835 0.213638 10.6409 0.290153 10.6804C0.366667 10.7199 0.451577 10.7405 0.537698 10.7402H3.23041C3.33069 10.7223 3.42443 10.6781 3.50203 10.6121C3.57964 10.5461 3.63833 10.4607 3.67212 10.3646L4.32158 8.45044L6.64164 10.6143C6.73883 10.6947 6.86078 10.7392 6.98693 10.7402H10.0043L8.6809 6.95851L4.82315 6.95942L7.18424 0.000247906H3.79912Z" fill="url(#paint1_linear_240_1639)"/>
<path d="M8.10772 0.365517C8.0718 0.259036 8.00337 0.16651 7.91208 0.100979C7.82079 0.0354471 7.71123 0.000213952 7.59886 0.00024416H3.83984C3.9522 0.000256215 4.06172 0.0355071 4.15299 0.101034C4.24426 0.166561 4.31269 0.259063 4.34862 0.365517L7.61088 10.0316C7.63819 10.1124 7.64586 10.1985 7.63326 10.2828C7.62067 10.3672 7.58816 10.4473 7.53843 10.5166C7.4887 10.5859 7.42319 10.6423 7.34731 10.6812C7.27143 10.7201 7.18738 10.7404 7.1021 10.7404H10.8613C10.9465 10.7403 11.0305 10.72 11.1064 10.681C11.1822 10.6421 11.2477 10.5857 11.2974 10.5164C11.3471 10.4472 11.3796 10.3671 11.3922 10.2828C11.4048 10.1985 11.3972 10.1124 11.37 10.0316L8.10772 0.365517Z" fill="url(#paint2_linear_240_1639)"/>
<defs>
<linearGradient id="paint0_linear_240_1639" x1="5.02927" y1="0.79604" x2="1.52643" y2="11.1441" gradientUnits="userSpaceOnUse">
<stop stop-color="#114A8B"/>
<stop offset="1" stop-color="#0669BC"/>
</linearGradient>
<linearGradient id="paint1_linear_240_1639" x1="6.12266" y1="5.61862" x2="5.31245" y2="5.89262" gradientUnits="userSpaceOnUse">
<stop stop-opacity="0.3"/>
<stop offset="0.071" stop-opacity="0.2"/>
<stop offset="0.321" stop-opacity="0.1"/>
<stop offset="0.623" stop-opacity="0.05"/>
<stop offset="1" stop-opacity="0"/>
</linearGradient>
<linearGradient id="paint2_linear_240_1639" x1="5.67757" y1="0.494266" x2="9.52263" y2="10.7382" gradientUnits="userSpaceOnUse">
<stop stop-color="#3CCBF4"/>
<stop offset="1" stop-color="#2892DF"/>
</linearGradient>
</defs>
</svg>
