<svg width="76" height="25" viewBox="0 0 76 25" fill="none" xmlns="http://www.w3.org/2000/svg">
<path d="M0.775 20L8.575 2.5H12.575L20.4 20H16.15L9.75 4.55H11.35L4.925 20H0.775ZM4.675 16.25L5.75 13.175H14.75L15.85 16.25H4.675ZM22.4406 20V6.55H26.3406V20H22.4406ZM24.3906 4.675C23.674 4.675 23.0906 4.46667 22.6406 4.05C22.1906 3.63333 21.9656 3.11667 21.9656 2.5C21.9656 1.88333 22.1906 1.36667 22.6406 0.949999C23.0906 0.533332 23.674 0.324998 24.3906 0.324998C25.1073 0.324998 25.6906 0.524999 26.1406 0.925C26.5906 1.30833 26.8156 1.80833 26.8156 2.425C26.8156 3.075 26.5906 3.61667 26.1406 4.05C25.7073 4.46667 25.124 4.675 24.3906 4.675ZM36.8602 20.2C35.4268 20.2 34.1518 19.9 33.0352 19.3C31.9352 18.7 31.0602 17.8833 30.4102 16.85C29.7768 15.8 29.4602 14.6083 29.4602 13.275C29.4602 11.925 29.7768 10.7333 30.4102 9.7C31.0602 8.65 31.9352 7.83333 33.0352 7.25C34.1518 6.65 35.4268 6.35 36.8602 6.35C38.2768 6.35 39.5435 6.65 40.6602 7.25C41.7768 7.83333 42.6518 8.64167 43.2852 9.675C43.9185 10.7083 44.2352 11.9083 44.2352 13.275C44.2352 14.6083 43.9185 15.8 43.2852 16.85C42.6518 17.8833 41.7768 18.7 40.6602 19.3C39.5435 19.9 38.2768 20.2 36.8602 20.2ZM36.8602 17C37.5102 17 38.0935 16.85 38.6102 16.55C39.1268 16.25 39.5352 15.825 39.8352 15.275C40.1352 14.7083 40.2852 14.0417 40.2852 13.275C40.2852 12.4917 40.1352 11.825 39.8352 11.275C39.5352 10.725 39.1268 10.3 38.6102 10C38.0935 9.7 37.5102 9.55 36.8602 9.55C36.2102 9.55 35.6268 9.7 35.1102 10C34.5935 10.3 34.1768 10.725 33.8602 11.275C33.5602 11.825 33.4102 12.4917 33.4102 13.275C33.4102 14.0417 33.5602 14.7083 33.8602 15.275C34.1768 15.825 34.5935 16.25 35.1102 16.55C35.6268 16.85 36.2102 17 36.8602 17ZM55.292 20.2C54.1587 20.2 53.167 19.95 52.317 19.45C51.467 18.95 50.8003 18.1917 50.317 17.175C49.8503 16.1417 49.617 14.8417 49.617 13.275C49.617 11.6917 49.842 10.3917 50.292 9.375C50.742 8.35833 51.392 7.6 52.242 7.1C53.092 6.6 54.1087 6.35 55.292 6.35C56.5587 6.35 57.692 6.64167 58.692 7.225C59.7087 7.79167 60.5087 8.59167 61.092 9.625C61.692 10.6583 61.992 11.875 61.992 13.275C61.992 14.6917 61.692 15.9167 61.092 16.95C60.5087 17.9833 59.7087 18.7833 58.692 19.35C57.692 19.9167 56.5587 20.2 55.292 20.2ZM47.342 24.85V6.55H51.067V9.3L50.992 13.3L51.242 17.275V24.85H47.342ZM54.617 17C55.267 17 55.842 16.85 56.342 16.55C56.8587 16.25 57.267 15.825 57.567 15.275C57.8837 14.7083 58.042 14.0417 58.042 13.275C58.042 12.4917 57.8837 11.825 57.567 11.275C57.267 10.725 56.8587 10.3 56.342 10C55.842 9.7 55.267 9.55 54.617 9.55C53.967 9.55 53.3837 9.7 52.867 10C52.3503 10.3 51.942 10.725 51.642 11.275C51.342 11.825 51.192 12.4917 51.192 13.275C51.192 14.0417 51.342 14.7083 51.642 15.275C51.942 15.825 52.3503 16.25 52.867 16.55C53.3837 16.85 53.967 17 54.617 17ZM69.6277 20.2C68.4777 20.2 67.3694 20.0667 66.3027 19.8C65.2527 19.5167 64.4194 19.1667 63.8027 18.75L65.1027 15.95C65.7194 16.3333 66.4444 16.65 67.2777 16.9C68.1277 17.1333 68.9611 17.25 69.7777 17.25C70.6777 17.25 71.3111 17.1417 71.6777 16.925C72.0611 16.7083 72.2527 16.4083 72.2527 16.025C72.2527 15.7083 72.1027 15.475 71.8027 15.325C71.5194 15.1583 71.1361 15.0333 70.6527 14.95C70.1694 14.8667 69.6361 14.7833 69.0527 14.7C68.4861 14.6167 67.9111 14.5083 67.3277 14.375C66.7444 14.225 66.2111 14.0083 65.7277 13.725C65.2444 13.4417 64.8527 13.0583 64.5527 12.575C64.2694 12.0917 64.1277 11.4667 64.1277 10.7C64.1277 9.85 64.3694 9.1 64.8527 8.45C65.3527 7.8 66.0694 7.29167 67.0027 6.925C67.9361 6.54167 69.0527 6.35 70.3527 6.35C71.2694 6.35 72.2027 6.45 73.1527 6.65C74.1027 6.85 74.8944 7.14167 75.5277 7.525L74.2277 10.3C73.5777 9.91667 72.9194 9.65833 72.2527 9.525C71.6027 9.375 70.9694 9.3 70.3527 9.3C69.4861 9.3 68.8527 9.41667 68.4527 9.65C68.0527 9.88333 67.8527 10.1833 67.8527 10.55C67.8527 10.8833 67.9944 11.1333 68.2777 11.3C68.5777 11.4667 68.9694 11.6 69.4527 11.7C69.9361 11.8 70.4611 11.8917 71.0277 11.975C71.6111 12.0417 72.1944 12.15 72.7777 12.3C73.3611 12.45 73.8861 12.6667 74.3527 12.95C74.8361 13.2167 75.2277 13.5917 75.5277 14.075C75.8277 14.5417 75.9777 15.1583 75.9777 15.925C75.9777 16.7583 75.7277 17.5 75.2277 18.15C74.7277 18.7833 74.0027 19.2833 73.0527 19.65C72.1194 20.0167 70.9777 20.2 69.6277 20.2Z" fill="#022859"/>
</svg>
