<svg width="19" height="14" viewBox="0 0 19 14" fill="none" xmlns="http://www.w3.org/2000/svg">
<path d="M6.92588 13.1765H4.52941C3.29412 13.1765 2.20706 12.7647 1.32588 11.8835C0.444706 11.0188 0 9.95647 0 8.71294C0 7.64235 0.321177 6.68706 0.963529 5.84706C1.58992 5.02582 2.48976 4.45612 3.5 4.24118C3.84588 2.98118 4.52941 1.96 5.55882 1.17765C6.58824 0.411765 7.75765 0 9.05882 0C10.6647 0 12.0318 0.56 13.1435 1.68C14.2635 2.79176 14.8235 4.15882 14.8235 5.76471C15.7706 5.87176 16.5612 6.28353 17.1788 7C17.7059 7.60118 18.0024 8.28471 18.0847 9.05882H16.4376C16.3553 8.64706 16.1741 8.30941 15.8694 8.01294C15.4741 7.60941 14.9882 7.41176 14.4118 7.41176H13.1765V5.76471C13.1765 4.62824 12.7647 3.65647 11.9741 2.84941C11.1753 2.05882 10.2035 1.64706 9.05882 1.64706C7.92235 1.64706 6.95059 2.05882 6.14353 2.84941C5.35294 3.65647 4.94118 4.62824 4.94118 5.76471H4.52941C3.73059 5.76471 3.05529 6.04471 2.49529 6.61294C1.92706 7.17294 1.64706 7.84824 1.64706 8.64706C1.64706 9.44588 1.92706 10.1294 2.49529 10.7059C3.05529 11.2576 3.73059 11.5294 4.52941 11.5294H6.58824C6.58824 12.1224 6.71176 12.6741 6.92588 13.1765ZM18.1176 10.7059V12.3529H16.4706V14H14.8235V12.3529H13.0118C12.6824 13.3412 11.7765 14 10.7059 14C9.30588 14 8.23529 12.9294 8.23529 11.5294C8.23529 10.1294 9.30588 9.05882 10.7059 9.05882C11.7765 9.05882 12.6824 9.71765 13.0118 10.7059H18.1176ZM11.5294 11.5294C11.5294 11.1176 11.2 10.7059 10.7059 10.7059C10.2118 10.7059 9.88235 11.1176 9.88235 11.5294C9.88235 11.9412 10.2118 12.3529 10.7059 12.3529C11.2 12.3529 11.5294 11.9412 11.5294 11.5294Z" fill="#ADADAD"/>
</svg>
