<svg width="726" height="480" viewBox="0 0 726 480" fill="none" xmlns="http://www.w3.org/2000/svg">
<path d="M366.639 478.937L10.7273 -144.916L0.990445 -179.052L5.98134 -213.58L26.1684 -247.122L61.3707 -278.222L110.659 -305.416L172.309 -327.337L243.825 -342.814L322.038 -350.977L403.302 -351.344M366.639 478.937L751.698 -113.322L767.737 -146.207M366.639 478.937L403.302 -351.344M366.639 478.937L683.786 -280.424M366.639 478.937L767.737 -146.207M366.639 478.937L769.371 -180.723M767.737 -146.207L769.371 -180.723M769.371 -180.723L755.88 -215.568L727.15 -249.303L683.786 -280.424M683.786 -280.424L627.179 -307.437L559.525 -328.967L483.737 -343.873L403.302 -351.344M366.649 478.937L1.00047 -179.051M366.649 478.937L5.99136 -213.579M366.649 478.937L26.1784 -247.122M366.649 478.937L61.3807 -278.221M366.649 478.937L110.669 -305.416M366.649 478.937L172.319 -327.337M366.649 478.937L243.835 -342.814M366.649 478.937L322.048 -350.977M366.646 478.937L483.745 -343.873M559.528 -328.967L366.642 478.937L627.181 -307.437M366.635 478.937L727.146 -249.303M366.651 478.937L755.892 -215.567" stroke="url(#paint0_linear_256_61125)" stroke-opacity="0.6" stroke-miterlimit="10" stroke-linecap="round" stroke-linejoin="round"/>
<defs>
<linearGradient id="paint0_linear_256_61125" x1="468.148" y1="-349.44" x2="402.247" y2="329.905" gradientUnits="userSpaceOnUse">
<stop stop-color="white"/>
<stop offset="1" stop-color="white" stop-opacity="0"/>
</linearGradient>
</defs>
</svg>
