<svg width="641" height="122" viewBox="0 0 641 122" fill="none" xmlns="http://www.w3.org/2000/svg">
<path d="M0.896533 49.2346L490.081 -138.69L516.912 -143.693L544.15 -140.707L570.712 -129.489L595.448 -110.15L617.201 -83.2041L634.88 -49.5982L647.547 -10.6952L654.496 31.7794L655.323 75.8456M0.896533 49.2346L470.087 262.824L496.103 271.787M0.896533 49.2346L655.323 75.8456M0.896533 49.2346L601.299 227.355M0.896533 49.2346L496.103 271.787M0.896533 49.2346L523.31 272.953M496.103 271.787L523.31 272.953M523.31 272.953L550.675 265.92L577.065 250.616L601.299 227.355M601.299 227.355L622.208 196.881L638.725 160.372L649.968 119.399L655.323 75.8456M0.896368 49.2401L516.912 -143.688M0.896368 49.2401L544.15 -140.702M0.896368 49.2401L570.711 -129.484M0.896368 49.2401L595.448 -110.144M0.896368 49.2401L617.2 -83.1987M0.896368 49.2401L634.88 -49.5928M0.896368 49.2401L647.547 -10.6897M0.896368 49.2401L654.496 31.7849M0.896411 49.2387L649.968 119.403M638.725 160.373L0.896479 49.2364L622.208 196.882M0.896608 49.2322L577.065 250.614M0.89634 49.241L550.675 265.927" stroke="url(#paint0_linear_397_75154)" stroke-opacity="0.6" stroke-miterlimit="10" stroke-linecap="round" stroke-linejoin="round"/>
<defs>
<linearGradient id="paint0_linear_397_75154" x1="654.251" y1="110.991" x2="-21.0302" y2="46.8456" gradientUnits="userSpaceOnUse">
<stop stop-color="white"/>
<stop offset="1" stop-color="white" stop-opacity="0"/>
</linearGradient>
</defs>
</svg>
