<svg width="461" height="286" viewBox="0 0 461 286" fill="none" xmlns="http://www.w3.org/2000/svg">
<path d="M1.33013 135.469L490.514 -52.4565L517.346 -57.4593L544.584 -54.4732L571.145 -43.2554L595.882 -23.9158L617.634 3.02976L635.314 36.6357L647.981 75.5387L654.93 118.013L655.756 162.079M1.33013 135.469L470.521 349.058L496.537 358.021M1.33013 135.469L655.756 162.079M1.33013 135.469L601.733 313.589M1.33013 135.469L496.537 358.021M1.33013 135.469L523.743 359.187M496.537 358.021L523.743 359.187M523.743 359.187L551.109 352.154L577.499 336.85L601.733 313.589M601.733 313.589L622.642 283.114L639.158 246.606L650.402 205.633L655.756 162.079M1.32996 135.474L517.346 -57.4539M1.32996 135.474L544.583 -54.4678M1.32996 135.474L571.145 -43.25M1.32996 135.474L595.882 -23.9104M1.32996 135.474L617.634 3.0352M1.32996 135.474L635.313 36.6411M1.32996 135.474L647.981 75.5442M1.32996 135.474L654.93 118.019M1.33 135.473L650.402 205.637M639.158 246.607L1.33007 135.47L622.642 283.116M1.3302 135.466L577.499 336.847M1.32993 135.475L551.108 352.161" stroke="url(#paint0_linear_397_77072)" stroke-opacity="0.6" stroke-miterlimit="10" stroke-linecap="round" stroke-linejoin="round"/>
<defs>
<linearGradient id="paint0_linear_397_77072" x1="654.685" y1="197.225" x2="-20.5966" y2="133.079" gradientUnits="userSpaceOnUse">
<stop stop-color="white"/>
<stop offset="1" stop-color="white" stop-opacity="0"/>
</linearGradient>
</defs>
</svg>
