<svg width="88" height="19" viewBox="0 0 88 19" fill="none" xmlns="http://www.w3.org/2000/svg">
<path d="M15.525 18.5L14.35 15.45H7.7L6.525 18.5H0.525L8.175 0.999999H13.975L21.625 18.5H15.525ZM9.325 11.2H12.725L11.025 6.8L9.325 11.2ZM23.0666 18.5V0.999999H28.9666V18.5H23.0666ZM41.4818 18.9C35.7818 18.9 31.6068 15.05 31.6068 9.75C31.6068 4.45 35.7818 0.599999 41.4818 0.599999C47.1818 0.599999 51.3568 4.45 51.3568 9.75C51.3568 15.05 47.1818 18.9 41.4818 18.9ZM41.4818 14.125C43.6568 14.125 45.4068 12.475 45.4068 9.75C45.4068 7.025 43.6568 5.375 41.4818 5.375C39.3068 5.375 37.5568 7.025 37.5568 9.75C37.5568 12.475 39.3068 14.125 41.4818 14.125ZM62.4232 0.999999C67.2982 0.999999 70.3982 3.55 70.3982 7.6C70.3982 11.65 67.2982 14.2 62.4232 14.2H59.8982V18.5H53.9982V0.999999H62.4232ZM62.0482 9.65C63.6732 9.65 64.4482 8.875 64.4482 7.6C64.4482 6.325 63.6732 5.55 62.0482 5.55H59.8982V9.65H62.0482ZM79.6023 18.9C76.6773 18.9 73.7273 18.175 71.9773 17.1L73.8773 12.8C75.5273 13.775 77.7273 14.4 79.6523 14.4C81.3273 14.4 81.9273 14.05 81.9273 13.45C81.9273 11.25 72.2523 13.025 72.2523 6.5C72.2523 3.25 74.9773 0.599999 80.4023 0.599999C82.7523 0.599999 85.1773 1.1 87.0023 2.125L85.2273 6.4C83.5023 5.525 81.8773 5.1 80.3523 5.1C78.6273 5.1 78.0773 5.6 78.0773 6.2C78.0773 8.3 87.7523 6.55 87.7523 13C87.7523 16.2 85.0273 18.9 79.6023 18.9Z" fill="#022859"/>
</svg>
